<svg width="53" height="21" viewBox="0 0 53 21" fill="none" xmlns="http://www.w3.org/2000/svg">
<path d="M0.566172 20L3.54217 11.36H4.71217L7.68817 20H6.77017L3.94417 11.852H4.29217L1.48417 20H0.566172ZM1.89217 17.906V17.078H6.35617V17.906H1.89217ZM11.2496 20.162C10.8616 20.162 10.5216 20.102 10.2296 19.982C9.94164 19.862 9.69564 19.7 9.49164 19.496C9.29164 19.292 9.12964 19.06 9.00564 18.8C8.88164 18.536 8.79164 18.258 8.73564 17.966C8.67964 17.67 8.65164 17.376 8.65164 17.084V13.52H9.53964V16.826C9.53964 17.182 9.57364 17.512 9.64164 17.816C9.70964 18.12 9.81764 18.386 9.96564 18.614C10.1176 18.838 10.3116 19.012 10.5476 19.136C10.7876 19.26 11.0776 19.322 11.4176 19.322C11.7296 19.322 12.0036 19.268 12.2396 19.16C12.4796 19.052 12.6796 18.898 12.8396 18.698C13.0036 18.494 13.1276 18.248 13.2116 17.96C13.2956 17.668 13.3376 17.34 13.3376 16.976L13.9616 17.114C13.9616 17.778 13.8456 18.336 13.6136 18.788C13.3816 19.24 13.0616 19.582 12.6536 19.814C12.2456 20.046 11.7776 20.162 11.2496 20.162ZM13.4276 20V18.404H13.3376V13.52H14.2196V20H13.4276ZM18.4106 20.18C17.8066 20.18 17.2906 20.03 16.8626 19.73C16.4346 19.426 16.1066 19.016 15.8786 18.5C15.6506 17.984 15.5366 17.402 15.5366 16.754C15.5366 16.11 15.6486 15.53 15.8726 15.014C16.1006 14.498 16.4266 14.09 16.8506 13.79C17.2746 13.49 17.7826 13.34 18.3746 13.34C18.9826 13.34 19.4946 13.488 19.9106 13.784C20.3266 14.08 20.6406 14.486 20.8526 15.002C21.0686 15.514 21.1766 16.098 21.1766 16.754C21.1766 17.398 21.0706 17.98 20.8586 18.5C20.6466 19.016 20.3346 19.426 19.9226 19.73C19.5106 20.03 19.0066 20.18 18.4106 20.18ZM18.5006 19.358C18.9606 19.358 19.3406 19.246 19.6406 19.022C19.9406 18.798 20.1646 18.49 20.3126 18.098C20.4606 17.702 20.5346 17.254 20.5346 16.754C20.5346 16.246 20.4606 15.798 20.3126 15.41C20.1646 15.018 19.9406 14.712 19.6406 14.492C19.3446 14.272 18.9706 14.162 18.5186 14.162C18.0546 14.162 17.6706 14.276 17.3666 14.504C17.0626 14.732 16.8366 15.042 16.6886 15.434C16.5446 15.826 16.4726 16.266 16.4726 16.754C16.4726 17.246 16.5466 17.69 16.6946 18.086C16.8466 18.478 17.0726 18.788 17.3726 19.016C17.6726 19.244 18.0486 19.358 18.5006 19.358ZM20.5346 20V15.122H20.4386V11.36H21.3266V20H20.5346ZM23.1299 12.29V11.3H24.0119V12.29H23.1299ZM23.1299 20V13.52H24.0119V20H23.1299ZM29.3387 20C28.9747 20.076 28.6147 20.106 28.2587 20.09C27.9067 20.074 27.5907 19.998 27.3107 19.862C27.0347 19.726 26.8247 19.514 26.6807 19.226C26.5647 18.986 26.5007 18.744 26.4887 18.5C26.4807 18.252 26.4767 17.97 26.4767 17.654V11.72H27.3527V17.618C27.3527 17.89 27.3547 18.118 27.3587 18.302C27.3667 18.482 27.4087 18.642 27.4847 18.782C27.6287 19.05 27.8567 19.21 28.1687 19.262C28.4847 19.314 28.8747 19.302 29.3387 19.226V20ZM25.0907 14.276V13.52H29.3387V14.276H25.0907ZM33.123 20.18C32.491 20.18 31.943 20.04 31.479 19.76C31.019 19.48 30.661 19.086 30.405 18.578C30.149 18.07 30.021 17.474 30.021 16.79C30.021 16.082 30.147 15.47 30.399 14.954C30.651 14.438 31.005 14.04 31.461 13.76C31.921 13.48 32.463 13.34 33.087 13.34C33.727 13.34 34.273 13.488 34.725 13.784C35.177 14.076 35.519 14.496 35.751 15.044C35.983 15.592 36.089 16.246 36.069 17.006H35.169V16.694C35.153 15.854 34.971 15.22 34.623 14.792C34.279 14.364 33.775 14.15 33.111 14.15C32.415 14.15 31.881 14.376 31.509 14.828C31.141 15.28 30.957 15.924 30.957 16.76C30.957 17.576 31.141 18.21 31.509 18.662C31.881 19.11 32.407 19.334 33.087 19.334C33.551 19.334 33.955 19.228 34.299 19.016C34.647 18.8 34.921 18.49 35.121 18.086L35.943 18.404C35.687 18.968 35.309 19.406 34.809 19.718C34.313 20.026 33.751 20.18 33.123 20.18ZM30.645 17.006V16.268H35.595V17.006H30.645ZM39.9145 20.18C39.3105 20.18 38.7945 20.03 38.3665 19.73C37.9385 19.426 37.6105 19.016 37.3825 18.5C37.1545 17.984 37.0405 17.402 37.0405 16.754C37.0405 16.11 37.1525 15.53 37.3765 15.014C37.6045 14.498 37.9305 14.09 38.3545 13.79C38.7785 13.49 39.2865 13.34 39.8785 13.34C40.4865 13.34 40.9985 13.488 41.4145 13.784C41.8305 14.08 42.1445 14.486 42.3565 15.002C42.5725 15.514 42.6805 16.098 42.6805 16.754C42.6805 17.398 42.5745 17.98 42.3625 18.5C42.1505 19.016 41.8385 19.426 41.4265 19.73C41.0145 20.03 40.5105 20.18 39.9145 20.18ZM40.0045 19.358C40.4645 19.358 40.8445 19.246 41.1445 19.022C41.4445 18.798 41.6685 18.49 41.8165 18.098C41.9645 17.702 42.0385 17.254 42.0385 16.754C42.0385 16.246 41.9645 15.798 41.8165 15.41C41.6685 15.018 41.4445 14.712 41.1445 14.492C40.8485 14.272 40.4745 14.162 40.0225 14.162C39.5585 14.162 39.1745 14.276 38.8705 14.504C38.5665 14.732 38.3405 15.042 38.1925 15.434C38.0485 15.826 37.9765 16.266 37.9765 16.754C37.9765 17.246 38.0505 17.69 38.1985 18.086C38.3505 18.478 38.5765 18.788 38.8765 19.016C39.1765 19.244 39.5525 19.358 40.0045 19.358ZM42.0385 20V15.122H41.9425V11.36H42.8305V20H42.0385Z" fill="white"/>
<g clip-path="url(#clip0_0_46)">
<path d="M44.4952 2.55496L47.3411 1.33531L50.1869 2.55496C50.3506 2.6251 50.4567 2.78601 50.4567 2.96406V6.01676C50.4567 6.9751 49.9432 7.85996 49.1111 8.33542L47.3411 9.34687L45.571 8.33542C44.739 7.85996 44.2255 6.9751 44.2255 6.01676V2.96406C44.2255 2.78601 44.3316 2.6251 44.4952 2.55496Z" fill="#00FF55" stroke="#00FF55" stroke-width="0.890173" stroke-linejoin="round"/>
</g>
<defs>
<clipPath id="clip0_0_46">
<rect width="10.6821" height="10.6821" fill="white" transform="translate(42)"/>
</clipPath>
</defs>
</svg>
