<svg width="330" height="87" viewBox="0 0 330 87" fill="none" xmlns="http://www.w3.org/2000/svg">
<g filter="url(#filter0_d_0_266)">
<path d="M28.3698 43.1616C27.7071 43.1616 27.1004 43.0403 26.5498 42.7976C26.0084 42.5456 25.5418 42.2003 25.1498 41.7616C24.7578 41.3229 24.4544 40.8096 24.2398 40.2216C24.0251 39.6336 23.9178 38.9989 23.9178 38.3176C23.9178 37.6456 24.0251 37.0203 24.2398 36.4416C24.4544 35.8536 24.7578 35.3403 25.1498 34.9016C25.5418 34.4629 26.0084 34.1223 26.5498 33.8796C27.1004 33.6276 27.7071 33.5016 28.3698 33.5016C29.0324 33.5016 29.6344 33.6276 30.1758 33.8796C30.7264 34.1223 31.1978 34.4629 31.5898 34.9016C31.9818 35.3403 32.2851 35.8536 32.4998 36.4416C32.7144 37.0203 32.8218 37.6456 32.8218 38.3176C32.8218 38.9989 32.7144 39.6336 32.4998 40.2216C32.2851 40.8096 31.9818 41.3229 31.5898 41.7616C31.1978 42.2003 30.7264 42.5456 30.1758 42.7976C29.6344 43.0403 29.0324 43.1616 28.3698 43.1616ZM28.3838 42.2936C29.1211 42.2936 29.7464 42.1256 30.2598 41.7896C30.7824 41.4443 31.1791 40.9729 31.4498 40.3756C31.7298 39.7689 31.8698 39.0829 31.8698 38.3176C31.8698 37.5616 31.7298 36.8849 31.4498 36.2876C31.1791 35.6903 30.7824 35.2189 30.2598 34.8736C29.7464 34.5283 29.1211 34.3556 28.3838 34.3556C27.6371 34.3556 27.0024 34.5283 26.4798 34.8736C25.9571 35.2189 25.5604 35.6903 25.2898 36.2876C25.0191 36.8849 24.8838 37.5616 24.8838 38.3176C24.8838 39.0829 25.0191 39.7689 25.2898 40.3756C25.5604 40.9729 25.9571 41.4443 26.4798 41.7896C27.0024 42.1256 27.6371 42.2936 28.3838 42.2936ZM39.502 43.0216H38.578V33.6416H39.404L43.982 40.3056L44.794 41.5516L44.738 40.3336V33.6416H45.662V43.0216H44.836L40.132 36.1896L39.446 35.1536L39.502 36.2036V43.0216Z" fill="white"/>
<path d="M115.244 38.8728H115.241C114.514 38.5242 113.588 38.346 112.486 38.346H109.352C108.516 38.346 107.849 38.1136 107.371 37.6658L107.348 37.6426C106.882 37.1514 106.657 36.5983 106.657 35.9522C106.657 35.3061 106.89 34.7096 107.348 34.2262C107.81 33.7351 108.444 33.4872 109.225 33.4872H116.937V31.8123H108.938C108.069 31.8123 107.322 32.0137 106.654 32.4243C105.986 32.8147 105.481 33.3183 105.113 33.9597C104.744 34.6027 104.561 35.2829 104.561 36.0452C104.561 36.9392 104.751 37.6968 105.131 38.3011C105.539 38.9162 106.079 39.3763 106.781 39.7125C107.511 40.0224 108.377 40.1804 109.352 40.1804H112.649C113.203 40.1804 113.698 40.3075 114.116 40.56C114.544 40.7878 114.861 41.1132 115.072 41.5268C115.278 41.9142 115.374 42.3077 115.374 42.7694C115.374 43.2311 115.261 43.6944 115.036 44.1158C114.812 44.5419 114.466 44.8967 114.015 45.1756C113.592 45.4266 113.075 45.5505 112.489 45.5505H105.068V47.2223H112.842C113.773 47.2223 114.559 47.0131 115.245 46.584C115.96 46.1502 116.496 45.6094 116.888 44.92C117.284 44.2119 117.473 43.4775 117.473 42.6718C117.473 41.736 117.275 40.935 116.891 40.2997C116.53 39.6738 115.989 39.2043 115.244 38.8728Z" fill="white"/>
<path d="M133.658 32.5209V32.5162C132.454 31.7942 131.041 31.427 129.461 31.427C127.88 31.427 126.471 31.7942 125.259 32.5178C124.05 33.2181 123.081 34.1973 122.374 35.4275C121.668 36.6313 121.31 38.0087 121.31 39.5178C121.31 41.0269 121.668 42.4198 122.374 43.6422C123.081 44.8492 124.052 45.8284 125.259 46.5519C126.412 47.2259 127.76 47.5807 129.259 47.6086H129.461C131.041 47.6117 132.451 47.26 133.658 46.5566C134.89 45.833 135.86 44.8538 136.548 43.6515C137.254 42.4244 137.612 41.0362 137.612 39.524C137.612 38.0118 137.254 36.5988 136.548 35.3949C135.86 34.1911 134.89 33.2243 133.658 32.5209ZM135.479 39.5256V39.5225C135.479 40.7139 135.226 41.8093 134.726 42.7808C134.225 43.7367 133.519 44.5068 132.629 45.0754C131.743 45.6409 130.645 45.9384 129.456 45.9384C128.268 45.9384 127.203 45.6487 126.283 45.0754C125.394 44.5068 124.687 43.7336 124.182 42.7777C123.685 41.8109 123.429 40.7155 123.429 39.524C123.429 38.3325 123.682 37.2495 124.182 36.3013C124.683 35.3221 125.394 34.5366 126.288 33.968C127.203 33.3947 128.272 33.1096 129.456 33.1096C130.64 33.1096 131.728 33.3994 132.629 33.9726C133.523 34.5459 134.23 35.3268 134.73 36.2982C135.228 37.2495 135.483 38.3325 135.483 39.5256H135.479Z" fill="white"/>
<path d="M153.161 32.2964L153.158 32.3011H153.16C152.096 31.7263 150.842 31.4319 149.428 31.4319C148.013 31.4319 146.775 31.7263 145.687 32.3104C144.597 32.8713 143.761 33.6459 143.136 34.667C142.537 35.6803 142.234 36.8841 142.234 38.246V47.2292H144.332V38.277C144.332 37.225 144.569 36.3 145.035 35.5331C145.517 34.7522 146.154 34.1448 146.927 33.7219C147.711 33.3082 148.551 33.099 149.428 33.099C150.304 33.099 151.136 33.3082 151.897 33.7219C152.686 34.1402 153.323 34.7475 153.792 35.5362C154.277 36.3016 154.522 37.2188 154.522 38.2708V47.223H156.623V38.2398C156.623 36.8826 156.308 35.6741 155.69 34.6608C155.084 33.6351 154.257 32.8651 153.161 32.2964Z" fill="white"/>
<path d="M164.266 31.8107H162.137V47.2253H164.266V31.8107Z" fill="white"/>
<path d="M177.147 33.4855H178.74V31.8107H177.245C175.641 31.8107 174.188 32.1593 172.938 32.8441C171.687 33.5258 170.685 34.4647 169.955 35.6299C169.233 36.7671 168.867 38.0748 168.867 39.5188C168.867 40.9628 169.233 42.2767 169.955 43.4387C170.682 44.5837 171.687 45.5086 172.938 46.1935C174.033 46.7884 176.177 47.2269 177.136 47.2269H178.74V45.552H177.147C175.99 45.552 174.925 45.2855 173.987 44.7587C173.077 44.2134 172.336 43.4743 171.788 42.5648C171.264 41.6523 170.996 40.6266 170.996 39.5157C170.996 38.4048 171.264 37.376 171.793 36.4634C172.336 35.5586 173.079 34.8304 173.991 34.3083C174.927 33.7644 175.985 33.4855 177.147 33.4855Z" fill="white"/>
<path d="M173.992 34.3151V34.3094L173.99 34.3113L173.992 34.3151Z" fill="white"/>
<path d="M80.1073 44.1821L80.112 44.1789C80.112 44.1789 80.1073 44.1821 80.1042 44.1837C80.1057 44.1837 80.1073 44.1837 80.1089 44.1837L80.1073 44.1821Z" fill="white"/>
<path d="M80.1042 44.1837C72.8516 46.3621 66.854 49.54 63.0968 53.2615L62.931 53.4273C63.9303 54.3724 65.0257 55.2184 66.2094 55.9373L66.4635 55.6259C67.4892 54.3724 68.5893 53.1624 69.7342 52.0221C72.8066 48.9605 76.3206 46.3109 80.1042 44.1837Z" fill="white"/>
<path d="M80.9424 40.9536H57C57.2897 44.8378 58.7322 48.3998 60.9958 51.2971L61.0996 51.1933C63.4252 48.8987 66.4527 46.8133 70.1045 44.9959C73.3055 43.4016 76.9806 42.0335 80.9424 40.9536Z" fill="white"/>
<path d="M71.7639 24.9896C78.2542 31.4567 86.4225 35.7329 95.3825 37.3551C94.3026 27.7677 86.1421 20.3105 76.2261 20.3105C73.6077 20.3105 71.1117 20.8327 68.8325 21.7747C69.7575 22.8887 70.746 23.9733 71.7639 24.9912V24.9896Z" fill="white"/>
<path d="M63.0968 25.7809C66.854 29.5087 72.8547 32.6818 80.1088 34.8649C76.3222 32.733 72.8051 30.0851 69.7311 27.022C68.5893 25.8847 67.4908 24.6747 66.4604 23.4182L66.2063 23.1067C65.0226 23.8256 63.9272 24.67 62.9325 25.6152L63.0983 25.7809H63.0968Z" fill="white"/>
<path d="M71.7639 54.0521C70.7414 55.07 69.7544 56.1546 68.8325 57.2686C71.1086 58.2106 73.6077 58.7327 76.2261 58.7327C86.1421 58.7327 94.3026 51.2741 95.3856 41.6835C86.4271 43.3057 78.2589 47.5819 71.767 54.049L71.7639 54.0521Z" fill="white"/>
<path d="M70.0999 34.0415V34.0446C66.4511 32.2271 63.4252 30.1401 61.0996 27.8486L60.9958 27.7448C58.7322 30.6421 57.2897 34.2041 57 38.0884H80.9377C76.9775 37.0085 73.3055 35.6404 70.0999 34.0415Z" fill="white"/>
<path d="M193.933 43.0215H190.657V42.2095H193.779C194.572 42.2095 195.165 42.0695 195.557 41.7895C195.958 41.5002 196.159 41.0382 196.159 40.4035C196.159 39.9742 196.047 39.6288 195.823 39.3675C195.608 39.1062 195.31 38.9148 194.927 38.7935C194.554 38.6722 194.124 38.6115 193.639 38.6115H190.657V37.7995H193.499C193.938 37.7995 194.325 37.7482 194.661 37.6455C194.997 37.5428 195.258 37.3702 195.445 37.1275C195.641 36.8848 195.739 36.5535 195.739 36.1335C195.739 35.7042 195.641 35.3682 195.445 35.1255C195.258 34.8828 194.997 34.7102 194.661 34.6075C194.334 34.5048 193.961 34.4535 193.541 34.4535H190.657V33.6415H193.835C194.479 33.6415 195.006 33.7442 195.417 33.9495C195.837 34.1455 196.15 34.4208 196.355 34.7755C196.57 35.1302 196.677 35.5455 196.677 36.0215C196.677 36.2735 196.64 36.5162 196.565 36.7495C196.49 36.9828 196.364 37.1975 196.187 37.3935C196.01 37.5802 195.776 37.7388 195.487 37.8695C195.198 38.0002 194.843 38.0888 194.423 38.1355C195.086 38.2008 195.613 38.3502 196.005 38.5835C196.397 38.8075 196.677 39.0875 196.845 39.4235C197.013 39.7595 197.097 40.1235 197.097 40.5155C197.097 41.0382 196.971 41.4908 196.719 41.8735C196.476 42.2468 196.122 42.5315 195.655 42.7275C195.188 42.9235 194.614 43.0215 193.933 43.0215ZM191.077 43.0215H190.153V33.6415H191.077V43.0215ZM203.841 43.0215H202.917V33.6415H203.841V43.0215ZM208.881 43.0215H203.239V42.2095H208.881V43.0215ZM217.347 43.1615C216.684 43.1615 216.078 43.0402 215.527 42.7975C214.986 42.5455 214.519 42.2002 214.127 41.7615C213.735 41.3228 213.432 40.8095 213.217 40.2215C213.002 39.6335 212.895 38.9988 212.895 38.3175C212.895 37.6455 213.002 37.0202 213.217 36.4415C213.432 35.8535 213.735 35.3402 214.127 34.9015C214.519 34.4628 214.986 34.1222 215.527 33.8795C216.078 33.6275 216.684 33.5015 217.347 33.5015C218.01 33.5015 218.612 33.6275 219.153 33.8795C219.704 34.1222 220.175 34.4628 220.567 34.9015C220.959 35.3402 221.262 35.8535 221.477 36.4415C221.692 37.0202 221.799 37.6455 221.799 38.3175C221.799 38.9988 221.692 39.6335 221.477 40.2215C221.262 40.8095 220.959 41.3228 220.567 41.7615C220.175 42.2002 219.704 42.5455 219.153 42.7975C218.612 43.0402 218.01 43.1615 217.347 43.1615ZM217.361 42.2935C218.098 42.2935 218.724 42.1255 219.237 41.7895C219.76 41.4442 220.156 40.9728 220.427 40.3755C220.707 39.7688 220.847 39.0828 220.847 38.3175C220.847 37.5615 220.707 36.8848 220.427 36.2875C220.156 35.6902 219.76 35.2188 219.237 34.8735C218.724 34.5282 218.098 34.3555 217.361 34.3555C216.614 34.3555 215.98 34.5282 215.457 34.8735C214.934 35.2188 214.538 35.6902 214.267 36.2875C213.996 36.8848 213.861 37.5615 213.861 38.3175C213.861 39.0828 213.996 39.7688 214.267 40.3755C214.538 40.9728 214.934 41.4442 215.457 41.7895C215.98 42.1255 216.614 42.2935 217.361 42.2935ZM231.447 43.1335C230.532 43.1335 229.757 42.9235 229.123 42.5035C228.488 42.0835 228.003 41.5095 227.667 40.7815C227.331 40.0535 227.163 39.2322 227.163 38.3175C227.163 37.3935 227.331 36.5722 227.667 35.8535C228.003 35.1255 228.488 34.5515 229.123 34.1315C229.757 33.7115 230.532 33.5015 231.447 33.5015C232.175 33.5015 232.805 33.6322 233.337 33.8935C233.869 34.1455 234.312 34.5002 234.667 34.9575C235.031 35.4148 235.306 35.9515 235.493 36.5675L234.681 37.1135C234.569 36.5722 234.377 36.0962 234.107 35.6855C233.845 35.2655 233.495 34.9388 233.057 34.7055C232.627 34.4722 232.095 34.3555 231.461 34.3555C230.723 34.3555 230.107 34.5282 229.613 34.8735C229.118 35.2095 228.745 35.6762 228.493 36.2735C228.25 36.8615 228.129 37.5428 228.129 38.3175C228.129 39.0828 228.25 39.7642 228.493 40.3615C228.745 40.9588 229.118 41.4302 229.613 41.7755C230.107 42.1115 230.723 42.2795 231.461 42.2795C232.095 42.2795 232.627 42.1628 233.057 41.9295C233.495 41.6962 233.845 41.3742 234.107 40.9635C234.377 40.5435 234.569 40.0628 234.681 39.5215L235.493 40.0675C235.306 40.6742 235.031 41.2108 234.667 41.6775C234.312 42.1348 233.869 42.4942 233.337 42.7555C232.805 43.0075 232.175 43.1335 231.447 43.1335ZM242.022 43.0215H241.098V33.6415H242.022V37.3095L241.98 38.8635L243.184 37.5755L246.908 33.6415H248.07L244.248 37.6315L244.15 37.7015L242.022 39.9555V43.0215ZM248.392 43.0215H247.258L243.66 37.6175L244.332 36.9595L248.392 43.0215ZM256.919 43.1335C256.005 43.1335 255.23 42.9235 254.595 42.5035C253.961 42.0835 253.475 41.5095 253.139 40.7815C252.803 40.0535 252.635 39.2322 252.635 38.3175C252.635 37.3935 252.803 36.5722 253.139 35.8535C253.475 35.1255 253.961 34.5515 254.595 34.1315C255.23 33.7115 256.005 33.5015 256.919 33.5015C257.647 33.5015 258.277 33.6322 258.809 33.8935C259.341 34.1455 259.785 34.5002 260.139 34.9575C260.503 35.4148 260.779 35.9515 260.965 36.5675L260.153 37.1135C260.041 36.5722 259.85 36.0962 259.579 35.6855C259.318 35.2655 258.968 34.9388 258.529 34.7055C258.1 34.4722 257.568 34.3555 256.933 34.3555C256.196 34.3555 255.58 34.5282 255.085 34.8735C254.591 35.2095 254.217 35.6762 253.965 36.2735C253.723 36.8615 253.601 37.5428 253.601 38.3175C253.601 39.0828 253.723 39.7642 253.965 40.3615C254.217 40.9588 254.591 41.4302 255.085 41.7755C255.58 42.1115 256.196 42.2795 256.933 42.2795C257.568 42.2795 258.1 42.1628 258.529 41.9295C258.968 41.6962 259.318 41.3742 259.579 40.9635C259.85 40.5435 260.041 40.0628 260.153 39.5215L260.965 40.0675C260.779 40.6742 260.503 41.2108 260.139 41.6775C259.785 42.1348 259.341 42.4942 258.809 42.7555C258.277 43.0075 257.647 43.1335 256.919 43.1335ZM273.655 43.0215H272.731V33.6415H273.655V43.0215ZM267.495 43.0215H266.571V33.6415H267.495V43.0215ZM273.207 38.6535H266.893V37.8275H273.207V38.6535ZM279.484 43.0215H278.518L282.284 33.6415H283.222L286.988 43.0215H285.966L283.222 36.0355L282.732 34.5795L282.242 36.0355L279.484 43.0215ZM285.21 40.1375H280.226V39.3255H285.21V40.1375ZM292.776 43.0215H291.852V33.6415H292.776V43.0215ZM300.167 43.0215H299.243V33.6415H300.069L304.647 40.3055L305.459 41.5515L305.403 40.3335V33.6415H306.327V43.0215H305.501L300.797 36.1895L300.111 35.1535L300.167 36.2035V43.0215Z" fill="white"/>
</g>
<defs>
<filter id="filter0_d_0_266" x="-0.4" y="0.910547" width="331.54" height="85.2222" filterUnits="userSpaceOnUse" color-interpolation-filters="sRGB">
<feFlood flood-opacity="0" result="BackgroundImageFix"/>
<feColorMatrix in="SourceAlpha" type="matrix" values="0 0 0 0 0 0 0 0 0 0 0 0 0 0 0 0 0 0 127 0" result="hardAlpha"/>
<feOffset dy="4"/>
<feGaussianBlur stdDeviation="11.7"/>
<feComposite in2="hardAlpha" operator="out"/>
<feColorMatrix type="matrix" values="0 0 0 0 0 0 0 0 0 0 0 0 0 0 0 0 0 0 1 0"/>
<feBlend mode="normal" in2="BackgroundImageFix" result="effect1_dropShadow_0_266"/>
<feBlend mode="normal" in="SourceGraphic" in2="effect1_dropShadow_0_266" result="shape"/>
</filter>
</defs>
</svg>
